FILE "ps1_solo_noble.bin" BINARY
  TRACK 01 MODE2/2352
    INDEX 01 00:00:00
  TRACK 02 AUDIO
    INDEX 00 00:15:21
    INDEX 01 00:17:21
  TRACK 03 AUDIO
    INDEX 00 01:39:51
    INDEX 01 01:41:51
  TRACK 04 AUDIO
    INDEX 00 05:26:02
    INDEX 01 05:28:02
